<?xml version="1.0" standalone="no"?>
<!DOCTYPE svg PUBLIC "-//W3C//DTD SVG 20010904//EN"
 "http://www.w3.org/TR/2001/REC-SVG-20010904/DTD/svg10.dtd">
<svg version="1.0" xmlns="http://www.w3.org/2000/svg"
 width="1920.000000pt" height="411.000000pt" viewBox="0 0 1920.000000 411.000000"
 preserveAspectRatio="xMidYMid meet">

<g transform="translate(0.000000,411.000000) scale(0.100000,-0.100000)"
fill="#000000" stroke="none">
<path d="M18597 4058 c-37 -65 -513 -957 -532 -999 -22 -46 -14 -82 20 -97 14
-7 71 -12 125 -12 l100 0 0 -870 c0 -634 -3 -876 -12 -894 -12 -28 -36 -40
-61 -30 -18 7 -732 838 -952 1109 -81 99 -206 259 -278 355 -72 96 -149 196
-170 222 -79 95 -212 179 -339 214 -123 34 -508 25 -550 -13 -17 -15 -18 -72
-18 -1179 0 -1052 -2 -1164 -16 -1179 -14 -14 -111 -15 -1017 -13 -979 3
-1003 3 -1041 23 -64 32 -80 64 -84 160 -4 93 13 276 28 305 28 53 -24 50 856
50 543 0 822 3 835 10 18 10 19 24 19 310 0 298 0 299 -22 314 -20 14 -148 16
-1173 16 -1025 0 -1153 -2 -1173 -16 l-22 -15 0 -894 0 -895 25 -16 c23 -15
139 -16 1478 -11 1596 6 1519 3 1648 68 94 47 193 152 246 259 85 173 93 256
93 1011 0 556 0 566 20 584 16 14 26 17 45 9 15 -5 229 -251 516 -594 1041
-1239 1072 -1275 1144 -1313 38 -21 56 -22 331 -25 260 -3 293 -2 308 13 15
15 16 133 16 1470 l0 1453 86 3 c92 4 114 17 114 64 0 12 -128 261 -284 554
l-284 533 -25 -44z"/>
<path d="M2538 3070 c-49 -9 -84 -34 -104 -73 -16 -29 -17 -97 -15 -825 3
-867 1 -832 62 -954 37 -73 140 -183 213 -227 118 -71 274 -104 334 -72 57 30
54 -28 55 1070 2 1006 2 1010 -19 1037 -11 15 -31 31 -45 34 -36 10 -439 19
-481 10z"/>
<path d="M12 3058 c-7 -7 -12 -18 -12 -26 0 -24 99 -198 144 -254 101 -126
394 -505 734 -952 671 -882 1072 -1386 1190 -1498 119 -112 309 -227 455 -278
117 -40 504 -45 763 -9 367 50 758 192 1064 385 230 145 530 402 530 452 0 37
-372 475 -406 480 -18 2 -52 -19 -126 -79 -307 -244 -632 -417 -941 -499 -378
-100 -618 -76 -841 84 -84 61 -136 117 -342 371 -568 701 -1408 1710 -1471
1766 -28 25 -69 51 -91 57 -56 17 -633 17 -650 0z"/>
<path d="M3748 3061 c-223 -4 -410 -9 -414 -13 -8 -9 -144 154 1306 -1577
l1215 -1451 478 0 c375 0 477 3 477 13 0 6 -284 344 -630 751 -347 406 -633
742 -636 748 -14 23 218 294 363 424 253 225 488 358 735 417 91 21 109 22
758 22 l665 0 5 -1185 5 -1185 330 0 330 0 3 1179 2 1179 302 -4 303 -4 1 115
c2 134 21 226 67 319 38 77 122 166 190 201 26 14 47 28 47 31 0 13 -539 19
-1825 19 -1507 0 -1463 2 -1663 -65 -146 -49 -338 -151 -468 -247 -187 -140
-409 -379 -549 -590 -21 -32 -41 -58 -45 -58 -4 0 -202 218 -439 485 -430 483
-432 485 -469 483 -20 -1 -220 -4 -444 -7z"/>
<path d="M10046 3054 c-169 -33 -321 -147 -396 -296 -78 -156 -75 -109 -75
-1228 0 -919 1 -1000 18 -1060 62 -230 210 -377 444 -442 78 -22 81 -22 1068
-22 982 0 991 1 1068 22 182 50 320 159 396 313 73 148 74 160 75 799 1 641 4
614 -77 645 -38 14 -102 16 -587 13 -412 -2 -552 -6 -574 -16 -15 -7 -165
-148 -333 -314 -226 -225 -303 -307 -301 -323 3 -20 9 -20 583 -25 l580 -5 3
-204 c2 -157 -1 -206 -10 -213 -17 -10 -1639 -10 -1656 0 -10 7 -12 185 -10
858 l3 849 2630 5 2630 5 0 325 0 325 -2705 2 c-2259 1 -2716 -1 -2774 -13z"/>
<path d="M32 1315 l3 -1300 323 -3 322 -2 0 852 c0 689 -3 858 -13 878 -15 28
-600 836 -623 860 -12 12 -14 -168 -12 -1285z"/>
</g>
</svg>
